<svg width="56" height="49" viewBox="0 0 56 49" fill="none" xmlns="http://www.w3.org/2000/svg">
<path d="M50.373 0.543945H12.0068C8.90403 0.543945 6.37975 2.80835 6.37975 5.59168V6.26689H5.62704C2.52428 6.26689 0 8.53129 0 11.3146V34.603C0 37.3863 2.52428 39.6507 5.62704 39.6507H8.40953L11.8078 47.805C11.9144 48.0609 12.1692 48.2435 12.4709 48.2804C12.5083 48.2849 12.5455 48.2871 12.5825 48.2871C12.845 48.2871 13.0947 48.1749 13.2516 47.9812L19.9962 39.6507H43.9932C47.096 39.6507 49.6203 37.3863 49.6203 34.603V33.9278H50.373C53.4757 33.9278 56 31.6634 56 28.8801V5.59168C56 2.80835 53.4757 0.543945 50.373 0.543945ZM47.9662 34.603C47.9662 36.5682 46.1839 38.167 43.9932 38.167H19.5748C19.31 38.167 19.0612 38.2808 18.9057 38.4729L12.8179 45.9919L9.75791 38.6491C9.63711 38.3592 9.32831 38.167 8.98329 38.167H5.62704C3.43631 38.167 1.65401 36.5682 1.65401 34.603V11.3146C1.65401 9.34943 3.43631 7.75062 5.62704 7.75062H43.9932C46.1839 7.75062 47.9662 9.34943 47.9662 11.3146V34.603ZM54.346 28.8801C54.346 30.8453 52.5637 32.4441 50.373 32.4441H49.6203V11.3146C49.6203 8.53129 47.096 6.26689 43.9932 6.26689H8.03376V5.59168C8.03376 3.62649 9.81606 2.02767 12.0068 2.02767H50.373C52.5637 2.02767 54.346 3.62649 54.346 5.59168V28.8801Z" fill="url(#paint0_linear)"/>
<path d="M50.373 0.543945H12.0068C8.90403 0.543945 6.37975 2.80835 6.37975 5.59168V6.26689H5.62704C2.52428 6.26689 0 8.53129 0 11.3146V34.603C0 37.3863 2.52428 39.6507 5.62704 39.6507H8.40953L11.8078 47.805C11.9144 48.0609 12.1692 48.2435 12.4709 48.2804C12.5083 48.2849 12.5455 48.2871 12.5825 48.2871C12.845 48.2871 13.0947 48.1749 13.2516 47.9812L19.9962 39.6507H43.9932C47.096 39.6507 49.6203 37.3863 49.6203 34.603V33.9278H50.373C53.4757 33.9278 56 31.6634 56 28.8801V5.59168C56 2.80835 53.4757 0.543945 50.373 0.543945ZM47.9662 34.603C47.9662 36.5682 46.1839 38.167 43.9932 38.167H19.5748C19.31 38.167 19.0612 38.2808 18.9057 38.4729L12.8179 45.9919L9.75791 38.6491C9.63711 38.3592 9.32831 38.167 8.98329 38.167H5.62704C3.43631 38.167 1.65401 36.5682 1.65401 34.603V11.3146C1.65401 9.34943 3.43631 7.75062 5.62704 7.75062H43.9932C46.1839 7.75062 47.9662 9.34943 47.9662 11.3146V34.603ZM54.346 28.8801C54.346 30.8453 52.5637 32.4441 50.373 32.4441H49.6203V11.3146C49.6203 8.53129 47.096 6.26689 43.9932 6.26689H8.03376V5.59168C8.03376 3.62649 9.81606 2.02767 12.0068 2.02767H50.373C52.5637 2.02767 54.346 3.62649 54.346 5.59168V28.8801Z" fill="url(#paint1_linear)"/>
<path d="M50.373 0.543945H12.0068C8.90403 0.543945 6.37975 2.80835 6.37975 5.59168V6.26689H5.62704C2.52428 6.26689 0 8.53129 0 11.3146V34.603C0 37.3863 2.52428 39.6507 5.62704 39.6507H8.40953L11.8078 47.805C11.9144 48.0609 12.1692 48.2435 12.4709 48.2804C12.5083 48.2849 12.5455 48.2871 12.5825 48.2871C12.845 48.2871 13.0947 48.1749 13.2516 47.9812L19.9962 39.6507H43.9932C47.096 39.6507 49.6203 37.3863 49.6203 34.603V33.9278H50.373C53.4757 33.9278 56 31.6634 56 28.8801V5.59168C56 2.80835 53.4757 0.543945 50.373 0.543945ZM47.9662 34.603C47.9662 36.5682 46.1839 38.167 43.9932 38.167H19.5748C19.31 38.167 19.0612 38.2808 18.9057 38.4729L12.8179 45.9919L9.75791 38.6491C9.63711 38.3592 9.32831 38.167 8.98329 38.167H5.62704C3.43631 38.167 1.65401 36.5682 1.65401 34.603V11.3146C1.65401 9.34943 3.43631 7.75062 5.62704 7.75062H43.9932C46.1839 7.75062 47.9662 9.34943 47.9662 11.3146V34.603ZM54.346 28.8801C54.346 30.8453 52.5637 32.4441 50.373 32.4441H49.6203V11.3146C49.6203 8.53129 47.096 6.26689 43.9932 6.26689H8.03376V5.59168C8.03376 3.62649 9.81606 2.02767 12.0068 2.02767H50.373C52.5637 2.02767 54.346 3.62649 54.346 5.59168V28.8801Z" fill="url(#paint2_linear)"/>
<defs>
<linearGradient id="paint0_linear" x1="25.83" y1="52.89" x2="-33.9334" y2="-19.0619" gradientUnits="userSpaceOnUse">
<stop offset="0.0647506" stop-color="#FEBDAB" stop-opacity="0.74"/>
<stop offset="0.225114" stop-color="#F3A9F8" stop-opacity="0.66"/>
<stop offset="0.45571" stop-color="#E0D8F0"/>
<stop offset="0.823271" stop-color="#EAF7FE"/>
<stop offset="0.991019" stop-color="#EAF7FE"/>
</linearGradient>
<linearGradient id="paint1_linear" x1="25.83" y1="52.89" x2="-33.9334" y2="-19.0619" gradientUnits="userSpaceOnUse">
<stop offset="0.0647506" stop-color="#FEBDAB" stop-opacity="0.74"/>
<stop offset="0.225114" stop-color="#F3A9F8" stop-opacity="0.66"/>
<stop offset="0.45571" stop-color="#E0D8F0"/>
<stop offset="0.823271" stop-color="#EAF7FE"/>
<stop offset="0.991019" stop-color="#EAF7FE"/>
</linearGradient>
<linearGradient id="paint2_linear" x1="25.83" y1="52.89" x2="-33.9334" y2="-19.0619" gradientUnits="userSpaceOnUse">
<stop offset="0.0647506" stop-color="#FED290" stop-opacity="0.7"/>
<stop offset="0.614306" stop-color="#FEBDAB"/>
<stop offset="0.65625" stop-color="#FED290" stop-opacity="0.7"/>
</linearGradient>
</defs>
</svg>
